<svg width="35" height="35" viewBox="0 0 35 35" fill="none" xmlns="http://www.w3.org/2000/svg">
<path d="M27.2372 11.1738C27.66 10.5027 27.3066 9.52023 26.4479 8.97935C25.5892 8.43847 24.5504 8.54403 24.1277 9.21512C23.705 9.88621 24.0584 10.8687 24.9171 11.4096C25.7757 11.9505 26.8145 11.8449 27.2372 11.1738Z" fill="url(#paint0_linear_89_51)"/>
<path fill-rule="evenodd" clip-rule="evenodd" d="M19.7544 9.44525H23.0356C24.5411 9.44427 26.0305 9.75407 27.4106 10.3553V24.7578H11.0044V18.1953C11.0044 15.8746 11.9263 13.649 13.5672 12.0081C15.2082 10.3671 17.4338 9.44525 19.7544 9.44525Z" fill="url(#paint1_radial_89_51)"/>
<path fill-rule="evenodd" clip-rule="evenodd" d="M19.7544 9.44525H23.0356C24.5411 9.44427 26.0305 9.75407 27.4106 10.3553V24.7578H11.0044V18.1953C11.0044 15.8746 11.9263 13.649 13.5672 12.0081C15.2082 10.3671 17.4338 9.44525 19.7544 9.44525Z" fill="url(#paint2_linear_89_51)"/>
<path fill-rule="evenodd" clip-rule="evenodd" d="M23.0356 9.82807H19.7544C17.5353 9.82807 15.4071 10.7096 13.8379 12.2788C12.2687 13.8479 11.3872 15.9761 11.3872 18.1953V24.3749H27.0278V10.609C25.7607 10.0909 24.4046 9.82565 23.0356 9.82807ZM27.4106 10.3553C26.0305 9.75407 24.5411 9.44427 23.0356 9.44525H19.7544C17.4338 9.44525 15.2082 10.3671 13.5672 12.0081C11.9263 13.649 11.0044 15.8746 11.0044 18.1953V24.7578H27.4106V10.3553Z" fill="url(#paint3_radial_89_51)"/>
<path d="M6.08252 28.0389C3.89502 28.0389 2.25439 25.3046 3.34814 24.7577L7.2058 23.6639C9.74767 24.2108 14.395 25.3046 12.645 25.3046C10.4575 25.3046 8.81689 28.0389 6.08252 28.0389Z" fill="url(#paint4_radial_89_51)"/>
<path d="M27.4106 10.3552V24.7577H32.8794C33.1695 24.7577 33.4477 24.6425 33.6528 24.4374C33.8579 24.2323 33.9731 23.9541 33.9731 23.664V20.3827C33.9731 15.8983 31.2738 12.0429 27.4106 10.3552Z" fill="url(#paint5_radial_89_51)"/>
<path d="M27.4106 10.3552V24.7577H32.8794C33.1695 24.7577 33.4477 24.6425 33.6528 24.4374C33.8579 24.2323 33.9731 23.9541 33.9731 23.664V20.3827C33.9731 15.8983 31.2738 12.0429 27.4106 10.3552Z" fill="url(#paint6_linear_89_51)"/>
<path d="M27.4106 10.3552V24.7577H32.8794C33.1695 24.7577 33.4477 24.6425 33.6528 24.4374C33.8579 24.2323 33.9731 23.9541 33.9731 23.664V20.3827C33.9731 15.8983 31.2738 12.0429 27.4106 10.3552Z" fill="url(#paint7_linear_89_51)"/>
<path d="M27.4106 10.3552V24.7577H32.8794C33.1695 24.7577 33.4477 24.6425 33.6528 24.4374C33.8579 24.2323 33.9731 23.9541 33.9731 23.664V20.3827C33.9731 15.8983 31.2738 12.0429 27.4106 10.3552Z" fill="url(#paint8_linear_89_51)"/>
<path d="M11.0405 20.5194C19.0982 20.5249 23.4491 22.2366 27.1974 24.7774C25.0427 26.9321 22.9132 28.996 19.7544 28.996C18.1444 28.996 16.7499 28.4841 15.5063 27.8191C14.9045 27.4904 14.3176 27.135 13.7476 26.7538C13.6163 26.6685 13.4876 26.5835 13.3615 26.4989C12.9491 26.2266 12.5521 25.963 12.1693 25.7333C10.778 24.8999 9.11554 24.4864 7.5296 24.3475C6.40346 24.2492 5.26963 24.2856 4.1521 24.4558L11.0405 20.5194Z" fill="url(#paint9_radial_89_51)"/>
<path d="M11.0405 20.5194C19.0982 20.5249 23.4491 22.2366 27.1974 24.7774C25.0427 26.9321 22.9132 28.996 19.7544 28.996C18.1444 28.996 16.7499 28.4841 15.5063 27.8191C14.9045 27.4904 14.3176 27.135 13.7476 26.7538C13.6163 26.6685 13.4876 26.5835 13.3615 26.4989C12.9491 26.2266 12.5521 25.963 12.1693 25.7333C10.778 24.8999 9.11554 24.4864 7.5296 24.3475C6.40346 24.2492 5.26963 24.2856 4.1521 24.4558L11.0405 20.5194Z" fill="url(#paint10_linear_89_51)"/>
<path d="M11.0405 20.5194C19.0982 20.5249 23.4491 22.2366 27.1974 24.7774C25.0427 26.9321 22.9132 28.996 19.7544 28.996C18.1444 28.996 16.7499 28.4841 15.5063 27.8191C14.9045 27.4904 14.3176 27.135 13.7476 26.7538C13.6163 26.6685 13.4876 26.5835 13.3615 26.4989C12.9491 26.2266 12.5521 25.963 12.1693 25.7333C10.778 24.8999 9.11554 24.4864 7.5296 24.3475C6.40346 24.2492 5.26963 24.2856 4.1521 24.4558L11.0405 20.5194Z" fill="url(#paint11_linear_89_51)"/>
<path d="M11.0405 20.5194C19.0982 20.5249 23.4491 22.2366 27.1974 24.7774C25.0427 26.9321 22.9132 28.996 19.7544 28.996C18.1444 28.996 16.7499 28.4841 15.5063 27.8191C14.9045 27.4904 14.3176 27.135 13.7476 26.7538C13.6163 26.6685 13.4876 26.5835 13.3615 26.4989C12.9491 26.2266 12.5521 25.963 12.1693 25.7333C10.778 24.8999 9.11554 24.4864 7.5296 24.3475C6.40346 24.2492 5.26963 24.2856 4.1521 24.4558L11.0405 20.5194Z" stroke="url(#paint12_radial_89_51)" stroke-width="0.125"/>
<path d="M11.0405 20.5194C19.0982 20.5249 23.4491 22.2366 27.1974 24.7774C25.0427 26.9321 22.9132 28.996 19.7544 28.996C18.1444 28.996 16.7499 28.4841 15.5063 27.8191C14.9045 27.4904 14.3176 27.135 13.7476 26.7538C13.6163 26.6685 13.4876 26.5835 13.3615 26.4989C12.9491 26.2266 12.5521 25.963 12.1693 25.7333C10.778 24.8999 9.11554 24.4864 7.5296 24.3475C6.40346 24.2492 5.26963 24.2856 4.1521 24.4558L11.0405 20.5194Z" stroke="url(#paint13_radial_89_51)" stroke-width="0.125"/>
<defs>
<linearGradient id="paint0_linear_89_51" x1="27.4106" y1="11.5532" x2="28.1514" y2="7.94538" gradientUnits="userSpaceOnUse">
<stop stop-color="#5C6EFF"/>
<stop offset="1" stop-color="#8099FF"/>
</linearGradient>
<radialGradient id="paint1_radial_89_51" cx="0" cy="0" r="1" gradientUnits="userSpaceOnUse" gradientTransform="translate(15.0239 22.2126) rotate(-30.727) scale(17.8628 24.7192)">
<stop offset="0.038" stop-color="#336AEE"/>
<stop offset="1" stop-color="#A8D5FF"/>
</radialGradient>
<linearGradient id="paint2_linear_89_51" x1="27.8328" y1="8.0726" x2="26.0861" y2="12.3142" gradientUnits="userSpaceOnUse">
<stop stop-color="#B5E1FF"/>
<stop offset="1" stop-color="#93C2FD" stop-opacity="0"/>
</linearGradient>
<radialGradient id="paint3_radial_89_51" cx="0" cy="0" r="1" gradientUnits="userSpaceOnUse" gradientTransform="translate(31.5748 5.16105) rotate(127.593) scale(11.8615)">
<stop stop-color="#BBE5FF"/>
<stop offset="1" stop-color="#BBE5FF" stop-opacity="0"/>
</radialGradient>
<radialGradient id="paint4_radial_89_51" cx="0" cy="0" r="1" gradientUnits="userSpaceOnUse" gradientTransform="translate(9.47642 25.275) rotate(180) scale(8.89266 5.26801)">
<stop offset="0.075" stop-color="#4B4A8E"/>
<stop offset="0.581" stop-color="#3F3C8B"/>
<stop offset="1" stop-color="#847AEA"/>
</radialGradient>
<radialGradient id="paint5_radial_89_51" cx="0" cy="0" r="1" gradientUnits="userSpaceOnUse" gradientTransform="translate(29.0053 21.6766) rotate(90) scale(23.3534 10.6411)">
<stop offset="0.167" stop-color="#6C8DFF"/>
<stop offset="0.362" stop-color="#7D9EFF"/>
<stop offset="0.62" stop-color="#DDE5FF"/>
</radialGradient>
<linearGradient id="paint6_linear_89_51" x1="25.5688" y1="15.5932" x2="30.296" y2="15.5637" gradientUnits="userSpaceOnUse">
<stop offset="0.413" stop-color="#456CF8"/>
<stop offset="0.629" stop-color="#6E92FF" stop-opacity="0"/>
</linearGradient>
<linearGradient id="paint7_linear_89_51" x1="29.5402" y1="25.7979" x2="29.5402" y2="22.6052" gradientUnits="userSpaceOnUse">
<stop offset="0.413" stop-color="#5478FA"/>
<stop offset="0.826" stop-color="#6E92FF" stop-opacity="0"/>
</linearGradient>
<linearGradient id="paint8_linear_89_51" x1="29.5402" y1="28.1527" x2="29.5402" y2="23.2998" gradientUnits="userSpaceOnUse">
<stop offset="0.632" stop-color="#966CFC"/>
<stop offset="0.974" stop-color="#6659FF" stop-opacity="0"/>
</linearGradient>
<radialGradient id="paint9_radial_89_51" cx="0" cy="0" r="1" gradientUnits="userSpaceOnUse" gradientTransform="translate(12.6451 25.8514) rotate(73.9609) scale(9.89664)">
<stop stop-color="#6F86F9"/>
<stop offset="1" stop-color="#4563DD"/>
</radialGradient>
<linearGradient id="paint10_linear_89_51" x1="6.85147" y1="21.8702" x2="8.43522" y2="24.341" gradientUnits="userSpaceOnUse">
<stop stop-color="#4765D7"/>
<stop offset="1" stop-color="#4F6FDF" stop-opacity="0"/>
</linearGradient>
<linearGradient id="paint11_linear_89_51" x1="22.3707" y1="30.1685" x2="20.5343" y2="27.445" gradientUnits="userSpaceOnUse">
<stop stop-color="#3758D2"/>
<stop offset="1" stop-color="#4F6FDF" stop-opacity="0"/>
</linearGradient>
<radialGradient id="paint12_radial_89_51" cx="0" cy="0" r="1" gradientUnits="userSpaceOnUse" gradientTransform="translate(18.9505 20.9197) rotate(109.118) scale(4.0616 7.17125)">
<stop stop-color="#3A5AD5"/>
<stop offset="1" stop-color="#3A5AD5" stop-opacity="0"/>
</radialGradient>
<radialGradient id="paint13_radial_89_51" cx="0" cy="0" r="1" gradientUnits="userSpaceOnUse" gradientTransform="translate(14.8643 29.1327) rotate(-57.788) scale(5.17089 9.12986)">
<stop stop-color="#3A5AD5" stop-opacity="0.56"/>
<stop offset="1" stop-color="#3A5AD5" stop-opacity="0"/>
</radialGradient>
</defs>
</svg>
