<svg width="36" height="36" viewBox="0 0 36 36" fill="none" xmlns="http://www.w3.org/2000/svg">
<path d="M7.31405 24.1196C8.14388 24.1196 8.81659 23.4469 8.81659 22.6171C8.81659 21.7873 8.14388 21.1146 7.31405 21.1146C6.48423 21.1146 5.81152 21.7873 5.81152 22.6171C5.81152 23.4469 6.48423 24.1196 7.31405 24.1196Z" fill="url(#paint0_radial_89_2)"/>
<path d="M27.9039 24.1313C28.7337 24.1313 29.4064 23.4586 29.4064 22.6288C29.4064 21.7989 28.7337 21.1262 27.9039 21.1262C27.0741 21.1262 26.4014 21.7989 26.4014 22.6288C26.4014 23.4586 27.0741 24.1313 27.9039 24.1313Z" fill="url(#paint1_radial_89_2)"/>
<path d="M27.9039 24.1313C28.7337 24.1313 29.4064 23.4586 29.4064 22.6288C29.4064 21.7989 28.7337 21.1262 27.9039 21.1262C27.0741 21.1262 26.4014 21.7989 26.4014 22.6288C26.4014 23.4586 27.0741 24.1313 27.9039 24.1313Z" fill="url(#paint2_radial_89_2)"/>
<path d="M10.8297 12.7669C10.2485 13.6387 9.82511 14.8255 9.67883 15.2798L11.9496 16.9141L13.6836 14.7189C13.3742 14.2495 13.0511 13.7891 12.7149 13.3384C12.4416 12.9954 12.1506 12.6669 11.843 12.3542L10.8297 12.7669Z" fill="url(#paint3_radial_89_2)"/>
<path d="M10.8297 12.7669C10.2485 13.6387 9.82511 14.8255 9.67883 15.2798L11.9496 16.9141L13.6836 14.7189C13.3742 14.2495 13.0511 13.7891 12.7149 13.3384C12.4416 12.9954 12.1506 12.6669 11.843 12.3542L10.8297 12.7669Z" fill="url(#paint4_radial_89_2)"/>
<path d="M24.3766 12.7669C24.9579 13.6387 25.3812 14.8255 25.5275 15.2798L23.2568 16.9141L21.5227 14.7189C21.7281 14.4041 22.2134 13.7017 22.4915 13.3384C22.7695 12.9752 23.1909 12.5305 23.3633 12.3542L24.3766 12.7669Z" fill="url(#paint5_radial_89_2)"/>
<path d="M24.3766 12.7669C24.9579 13.6387 25.3812 14.8255 25.5275 15.2798L23.2568 16.9141L21.5227 14.7189C21.7281 14.4041 22.2134 13.7017 22.4915 13.3384C22.7695 12.9752 23.1909 12.5305 23.3633 12.3542L24.3766 12.7669Z" fill="url(#paint6_radial_89_2)"/>
<path d="M24.3766 12.7669C24.9579 13.6387 25.3812 14.8255 25.5275 15.2798L23.2568 16.9141L21.5227 14.7189C21.7281 14.4041 22.2134 13.7017 22.4915 13.3384C22.7695 12.9752 23.1909 12.5305 23.3633 12.3542L24.3766 12.7669Z" fill="url(#paint7_radial_89_2)"/>
<g filter="url(#filter0_ii_89_2)">
<path d="M5.13049 12.8347L8.13943 27.52C8.21132 27.8699 8.40186 28.1842 8.67883 28.4098C8.95579 28.6354 9.30218 28.7584 9.6594 28.7581L25.5469 28.7581C25.9042 28.7581 26.2506 28.6347 26.5274 28.4088C26.8042 28.1828 26.9944 27.8682 27.0659 27.5181L30.0748 12.8337L29.1138 12.3649C27.6762 13.4092 24.6653 15.5511 23.8884 16.02C23.2684 16.3939 22.6988 15.7846 22.5806 15.6111C21.4985 14.0224 19.8468 11.709 19.2287 10.8962C18.5971 10.0631 17.8821 9.65237 17.6022 9.61749C17.3222 9.65237 16.6073 10.0631 15.9747 10.8962C15.3576 11.709 13.7068 14.0224 12.6238 15.6111C12.5056 15.7846 11.936 16.3949 11.316 16.02C10.539 15.5511 7.52815 13.4092 6.09052 12.3649L5.13049 12.8347Z" fill="url(#paint8_linear_89_2)"/>
<path d="M5.13049 12.8347L8.13943 27.52C8.21132 27.8699 8.40186 28.1842 8.67883 28.4098C8.95579 28.6354 9.30218 28.7584 9.6594 28.7581L25.5469 28.7581C25.9042 28.7581 26.2506 28.6347 26.5274 28.4088C26.8042 28.1828 26.9944 27.8682 27.0659 27.5181L30.0748 12.8337L29.1138 12.3649C27.6762 13.4092 24.6653 15.5511 23.8884 16.02C23.2684 16.3939 22.6988 15.7846 22.5806 15.6111C21.4985 14.0224 19.8468 11.709 19.2287 10.8962C18.5971 10.0631 17.8821 9.65237 17.6022 9.61749C17.3222 9.65237 16.6073 10.0631 15.9747 10.8962C15.3576 11.709 13.7068 14.0224 12.6238 15.6111C12.5056 15.7846 11.936 16.3949 11.316 16.02C10.539 15.5511 7.52815 13.4092 6.09052 12.3649L5.13049 12.8347Z" fill="url(#paint9_radial_89_2)"/>
</g>
<path d="M5.13049 12.8347L8.13943 27.52C8.21132 27.8699 8.40186 28.1842 8.67883 28.4098C8.95579 28.6354 9.30218 28.7584 9.6594 28.7581L25.5469 28.7581C25.9042 28.7581 26.2506 28.6347 26.5274 28.4088C26.8042 28.1828 26.9944 27.8682 27.0659 27.5181L30.0748 12.8337L29.1138 12.3649C27.6762 13.4092 24.6653 15.5511 23.8884 16.02C23.2684 16.3939 22.6988 15.7846 22.5806 15.6111C21.4985 14.0224 19.8468 11.709 19.2287 10.8962C18.5971 10.0631 17.8821 9.65237 17.6022 9.61749C17.3222 9.65237 16.6073 10.0631 15.9747 10.8962C15.3576 11.709 13.7068 14.0224 12.6238 15.6111C12.5056 15.7846 11.936 16.3949 11.316 16.02C10.539 15.5511 7.52815 13.4092 6.09052 12.3649L5.13049 12.8347Z" fill="url(#paint10_linear_89_2)"/>
<path d="M5.13049 12.8347L8.13943 27.52C8.21132 27.8699 8.40186 28.1842 8.67883 28.4098C8.95579 28.6354 9.30218 28.7584 9.6594 28.7581L25.5469 28.7581C25.9042 28.7581 26.2506 28.6347 26.5274 28.4088C26.8042 28.1828 26.9944 27.8682 27.0659 27.5181L30.0748 12.8337L29.1138 12.3649C27.6762 13.4092 24.6653 15.5511 23.8884 16.02C23.2684 16.3939 22.6988 15.7846 22.5806 15.6111C21.4985 14.0224 19.8468 11.709 19.2287 10.8962C18.5971 10.0631 17.8821 9.65237 17.6022 9.61749C17.3222 9.65237 16.6073 10.0631 15.9747 10.8962C15.3576 11.709 13.7068 14.0224 12.6238 15.6111C12.5056 15.7846 11.936 16.3949 11.316 16.02C10.539 15.5511 7.52815 13.4092 6.09052 12.3649L5.13049 12.8347Z" fill="url(#paint11_linear_89_2)"/>
<path d="M5.13049 12.8347L8.13943 27.52C8.21132 27.8699 8.40186 28.1842 8.67883 28.4098C8.95579 28.6354 9.30218 28.7584 9.6594 28.7581L25.5469 28.7581C25.9042 28.7581 26.2506 28.6347 26.5274 28.4088C26.8042 28.1828 26.9944 27.8682 27.0659 27.5181L30.0748 12.8337L29.1138 12.3649C27.6762 13.4092 24.6653 15.5511 23.8884 16.02C23.2684 16.3939 22.6988 15.7846 22.5806 15.6111C21.4985 14.0224 19.8468 11.709 19.2287 10.8962C18.5971 10.0631 17.8821 9.65237 17.6022 9.61749C17.3222 9.65237 16.6073 10.0631 15.9747 10.8962C15.3576 11.709 13.7068 14.0224 12.6238 15.6111C12.5056 15.7846 11.936 16.3949 11.316 16.02C10.539 15.5511 7.52815 13.4092 6.09052 12.3649L5.13049 12.8347Z" fill="url(#paint12_linear_89_2)"/>
<path d="M5.13049 12.8347L8.13943 27.52C8.21132 27.8699 8.40186 28.1842 8.67883 28.4098C8.95579 28.6354 9.30218 28.7584 9.6594 28.7581L25.5469 28.7581C25.9042 28.7581 26.2506 28.6347 26.5274 28.4088C26.8042 28.1828 26.9944 27.8682 27.0659 27.5181L30.0748 12.8337L29.1138 12.3649C27.6762 13.4092 24.6653 15.5511 23.8884 16.02C23.2684 16.3939 22.6988 15.7846 22.5806 15.6111C21.4985 14.0224 19.8468 11.709 19.2287 10.8962C18.5971 10.0631 17.8821 9.65237 17.6022 9.61749C17.3222 9.65237 16.6073 10.0631 15.9747 10.8962C15.3576 11.709 13.7068 14.0224 12.6238 15.6111C12.5056 15.7846 11.936 16.3949 11.316 16.02C10.539 15.5511 7.52815 13.4092 6.09052 12.3649L5.13049 12.8347Z" fill="url(#paint13_radial_89_2)"/>
<path d="M5.13049 12.8347L8.13943 27.52C8.21132 27.8699 8.40186 28.1842 8.67883 28.4098C8.95579 28.6354 9.30218 28.7584 9.6594 28.7581L25.5469 28.7581C25.9042 28.7581 26.2506 28.6347 26.5274 28.4088C26.8042 28.1828 26.9944 27.8682 27.0659 27.5181L30.0748 12.8337L29.1138 12.3649C27.6762 13.4092 24.6653 15.5511 23.8884 16.02C23.2684 16.3939 22.6988 15.7846 22.5806 15.6111C21.4985 14.0224 19.8468 11.709 19.2287 10.8962C18.5971 10.0631 17.8821 9.65237 17.6022 9.61749C17.3222 9.65237 16.6073 10.0631 15.9747 10.8962C15.3576 11.709 13.7068 14.0224 12.6238 15.6111C12.5056 15.7846 11.936 16.3949 11.316 16.02C10.539 15.5511 7.52815 13.4092 6.09052 12.3649L5.13049 12.8347Z" fill="url(#paint14_radial_89_2)"/>
<path d="M5.13049 12.8347L8.13943 27.52C8.21132 27.8699 8.40186 28.1842 8.67883 28.4098C8.95579 28.6354 9.30218 28.7584 9.6594 28.7581L25.5469 28.7581C25.9042 28.7581 26.2506 28.6347 26.5274 28.4088C26.8042 28.1828 26.9944 27.8682 27.0659 27.5181L30.0748 12.8337L29.1138 12.3649C27.6762 13.4092 24.6653 15.5511 23.8884 16.02C23.2684 16.3939 22.6988 15.7846 22.5806 15.6111C21.4985 14.0224 19.8468 11.709 19.2287 10.8962C18.5971 10.0631 17.8821 9.65237 17.6022 9.61749C17.3222 9.65237 16.6073 10.0631 15.9747 10.8962C15.3576 11.709 13.7068 14.0224 12.6238 15.6111C12.5056 15.7846 11.936 16.3949 11.316 16.02C10.539 15.5511 7.52815 13.4092 6.09052 12.3649L5.13049 12.8347Z" fill="url(#paint15_radial_89_2)"/>
<g filter="url(#filter1_di_89_2)">
<path d="M25.14 23.0938C24.8823 23.8823 24.0569 24.2776 23.2684 24.0209C22.6735 23.7787 22.4168 23.0996 22.6735 22.311C22.9303 21.5215 23.7392 21.0691 24.2294 21.2279C25.0179 21.4847 25.3957 22.3042 25.14 23.0938Z" fill="url(#paint16_radial_89_2)"/>
<path d="M25.14 23.0938C24.8823 23.8823 24.0569 24.2776 23.2684 24.0209C22.6735 23.7787 22.4168 23.0996 22.6735 22.311C22.9303 21.5215 23.7392 21.0691 24.2294 21.2279C25.0179 21.4847 25.3957 22.3042 25.14 23.0938Z" fill="url(#paint17_radial_89_2)"/>
</g>
<g filter="url(#filter2_di_89_2)">
<path d="M10.1409 23.0938C10.3976 23.8823 11.223 24.2776 12.0125 24.0209C12.6064 23.7787 12.8631 23.0996 12.6064 22.311C12.3496 21.5215 11.5407 21.0691 11.0515 21.2279C10.262 21.4847 9.88416 22.3042 10.1409 23.0938Z" fill="url(#paint18_radial_89_2)"/>
<path d="M10.1409 23.0938C10.3976 23.8823 11.223 24.2776 12.0125 24.0209C12.6064 23.7787 12.8631 23.0996 12.6064 22.311C12.3496 21.5215 11.5407 21.0691 11.0515 21.2279C10.262 21.4847 9.88416 22.3042 10.1409 23.0938Z" fill="url(#paint19_radial_89_2)"/>
</g>
<path d="M6.87134 12.6138C6.87134 12.9711 6.72942 13.3137 6.4768 13.5663C6.22418 13.819 5.88155 13.9609 5.52429 13.9609C5.16703 13.9609 4.82441 13.819 4.57179 13.5663C4.31917 13.3137 4.17725 12.9711 4.17725 12.6138C4.17725 12.2567 4.31912 11.9142 4.57165 11.6617C4.82417 11.4091 5.16668 11.2673 5.52381 11.2673C5.88094 11.2673 6.22344 11.4091 6.47597 11.6617C6.7285 11.9142 6.87134 12.2567 6.87134 12.6138Z" fill="url(#paint20_radial_89_2)"/>
<path d="M6.87134 12.6138C6.87134 12.9711 6.72942 13.3137 6.4768 13.5663C6.22418 13.819 5.88155 13.9609 5.52429 13.9609C5.16703 13.9609 4.82441 13.819 4.57179 13.5663C4.31917 13.3137 4.17725 12.9711 4.17725 12.6138C4.17725 12.2567 4.31912 11.9142 4.57165 11.6617C4.82417 11.4091 5.16668 11.2673 5.52381 11.2673C5.88094 11.2673 6.22344 11.4091 6.47597 11.6617C6.7285 11.9142 6.87134 12.2567 6.87134 12.6138Z" fill="url(#paint21_radial_89_2)"/>
<path d="M6.87134 12.6138C6.87134 12.9711 6.72942 13.3137 6.4768 13.5663C6.22418 13.819 5.88155 13.9609 5.52429 13.9609C5.16703 13.9609 4.82441 13.819 4.57179 13.5663C4.31917 13.3137 4.17725 12.9711 4.17725 12.6138C4.17725 12.2567 4.31912 11.9142 4.57165 11.6617C4.82417 11.4091 5.16668 11.2673 5.52381 11.2673C5.88094 11.2673 6.22344 11.4091 6.47597 11.6617C6.7285 11.9142 6.87134 12.2567 6.87134 12.6138Z" fill="url(#paint22_radial_89_2)"/>
<path d="M6.87134 12.6138C6.87134 12.9711 6.72942 13.3137 6.4768 13.5663C6.22418 13.819 5.88155 13.9609 5.52429 13.9609C5.16703 13.9609 4.82441 13.819 4.57179 13.5663C4.31917 13.3137 4.17725 12.9711 4.17725 12.6138C4.17725 12.2567 4.31912 11.9142 4.57165 11.6617C4.82417 11.4091 5.16668 11.2673 5.52381 11.2673C5.88094 11.2673 6.22344 11.4091 6.47597 11.6617C6.7285 11.9142 6.87134 12.2567 6.87134 12.6138Z" fill="url(#paint23_radial_89_2)"/>
<path d="M12.0618 12.8609C12.319 12.7102 12.519 12.4785 12.6303 12.202C12.7417 11.9254 12.7581 11.6198 12.6771 11.333C12.5961 11.0461 12.4222 10.7942 12.1826 10.6168C11.9431 10.4394 11.6514 10.3465 11.3534 10.3527C11.0554 10.3589 10.7678 10.4637 10.5358 10.6509C10.3038 10.838 10.1405 11.0968 10.0714 11.3868C10.0023 11.6768 10.0313 11.9815 10.154 12.2531C10.2766 12.5248 10.486 12.7481 10.7492 12.888C10.8789 12.8383 11.0212 12.8315 11.1551 12.8686C11.3624 12.9287 11.7034 13.0042 12.0628 12.8609" fill="url(#paint24_radial_89_2)"/>
<path d="M12.0618 12.8609C12.319 12.7102 12.519 12.4785 12.6303 12.202C12.7417 11.9254 12.7581 11.6198 12.6771 11.333C12.5961 11.0461 12.4222 10.7942 12.1826 10.6168C11.9431 10.4394 11.6514 10.3465 11.3534 10.3527C11.0554 10.3589 10.7678 10.4637 10.5358 10.6509C10.3038 10.838 10.1405 11.0968 10.0714 11.3868C10.0023 11.6768 10.0313 11.9815 10.154 12.2531C10.2766 12.5248 10.486 12.7481 10.7492 12.888C10.8789 12.8383 11.0212 12.8315 11.1551 12.8686C11.3624 12.9287 11.7034 13.0042 12.0628 12.8609" fill="url(#paint25_radial_89_2)"/>
<path d="M12.0618 12.8609C12.319 12.7102 12.519 12.4785 12.6303 12.202C12.7417 11.9254 12.7581 11.6198 12.6771 11.333C12.5961 11.0461 12.4222 10.7942 12.1826 10.6168C11.9431 10.4394 11.6514 10.3465 11.3534 10.3527C11.0554 10.3589 10.7678 10.4637 10.5358 10.6509C10.3038 10.838 10.1405 11.0968 10.0714 11.3868C10.0023 11.6768 10.0313 11.9815 10.154 12.2531C10.2766 12.5248 10.486 12.7481 10.7492 12.888C10.8789 12.8383 11.0212 12.8315 11.1551 12.8686C11.3624 12.9287 11.7034 13.0042 12.0628 12.8609" fill="url(#paint26_radial_89_2)"/>
<path d="M12.0618 12.8609C12.319 12.7102 12.519 12.4785 12.6303 12.202C12.7417 11.9254 12.7581 11.6198 12.6771 11.333C12.5961 11.0461 12.4222 10.7942 12.1826 10.6168C11.9431 10.4394 11.6514 10.3465 11.3534 10.3527C11.0554 10.3589 10.7678 10.4637 10.5358 10.6509C10.3038 10.838 10.1405 11.0968 10.0714 11.3868C10.0023 11.6768 10.0313 11.9815 10.154 12.2531C10.2766 12.5248 10.486 12.7481 10.7492 12.888C10.8789 12.8383 11.0212 12.8315 11.1551 12.8686C11.3624 12.9287 11.7034 13.0042 12.0628 12.8609" fill="url(#paint27_radial_89_2)"/>
<g filter="url(#filter3_i_89_2)">
<path d="M23.1445 12.8609C22.8873 12.7102 22.6873 12.4785 22.576 12.202C22.4646 11.9254 22.4482 11.6198 22.5292 11.333C22.6102 11.0461 22.7842 10.7942 23.0237 10.6168C23.2632 10.4394 23.5549 10.3465 23.8529 10.3527C24.1509 10.3589 24.4385 10.4637 24.6705 10.6509C24.9025 10.838 25.0658 11.0968 25.135 11.3868C25.2041 11.6768 25.175 11.9815 25.0523 12.2531C24.9297 12.5248 24.7203 12.7481 24.4571 12.888C24.3274 12.8383 24.1851 12.8315 24.0512 12.8686C23.8439 12.9287 23.5039 13.0042 23.1445 12.8609Z" fill="url(#paint28_radial_89_2)"/>
<path d="M23.1445 12.8609C22.8873 12.7102 22.6873 12.4785 22.576 12.202C22.4646 11.9254 22.4482 11.6198 22.5292 11.333C22.6102 11.0461 22.7842 10.7942 23.0237 10.6168C23.2632 10.4394 23.5549 10.3465 23.8529 10.3527C24.1509 10.3589 24.4385 10.4637 24.6705 10.6509C24.9025 10.838 25.0658 11.0968 25.135 11.3868C25.2041 11.6768 25.175 11.9815 25.0523 12.2531C24.9297 12.5248 24.7203 12.7481 24.4571 12.888C24.3274 12.8383 24.1851 12.8315 24.0512 12.8686C23.8439 12.9287 23.5039 13.0042 23.1445 12.8609Z" fill="url(#paint29_radial_89_2)"/>
</g>
<g filter="url(#filter4_di_89_2)">
<path d="M17.64 25.0806C18.9605 25.0806 20.0309 24.0102 20.0309 22.6898C20.0309 21.3693 18.9605 20.2989 17.64 20.2989C16.3196 20.2989 15.2491 21.3693 15.2491 22.6898C15.2491 24.0102 16.3196 25.0806 17.64 25.0806Z" fill="url(#paint30_radial_89_2)"/>
</g>
<g filter="url(#filter5_f_89_2)">
<path d="M17.8066 10.1241C17.9742 10.1047 18.4005 10.1909 18.7754 10.6995C19.1513 11.2081 21.4356 14.4631 22.5303 16.0277C22.7424 16.3551 23.3692 16.8724 24.18 16.3154C24.9909 15.7584 27.6007 13.8693 28.585 13.2134" stroke="url(#paint31_linear_89_2)" stroke-width="0.075"/>
<path d="M17.8066 10.1241C17.9742 10.1047 18.4005 10.1909 18.7754 10.6995C19.1513 11.2081 21.4356 14.4631 22.5303 16.0277C22.7424 16.3551 23.3692 16.8724 24.18 16.3154C24.9909 15.7584 27.6007 13.8693 28.585 13.2134" stroke="url(#paint32_radial_89_2)" stroke-width="0.075"/>
</g>
<path d="M17.5993 10.2123C18.5629 10.2123 19.3441 9.43114 19.3441 8.46756C19.3441 7.50398 18.5629 6.72284 17.5993 6.72284C16.6358 6.72284 15.8546 7.50398 15.8546 8.46756C15.8546 9.43114 16.6358 10.2123 17.5993 10.2123Z" fill="url(#paint33_radial_89_2)"/>
<path d="M17.5993 10.2123C18.5629 10.2123 19.3441 9.43114 19.3441 8.46756C19.3441 7.50398 18.5629 6.72284 17.5993 6.72284C16.6358 6.72284 15.8546 7.50398 15.8546 8.46756C15.8546 9.43114 16.6358 10.2123 17.5993 10.2123Z" fill="url(#paint34_radial_89_2)"/>
<path d="M17.5993 10.2123C18.5629 10.2123 19.3441 9.43114 19.3441 8.46756C19.3441 7.50398 18.5629 6.72284 17.5993 6.72284C16.6358 6.72284 15.8546 7.50398 15.8546 8.46756C15.8546 9.43114 16.6358 10.2123 17.5993 10.2123Z" fill="url(#paint35_radial_89_2)"/>
<path d="M17.5993 10.2123C18.5629 10.2123 19.3441 9.43114 19.3441 8.46756C19.3441 7.50398 18.5629 6.72284 17.5993 6.72284C16.6358 6.72284 15.8546 7.50398 15.8546 8.46756C15.8546 9.43114 16.6358 10.2123 17.5993 10.2123Z" fill="url(#paint36_radial_89_2)"/>
<path d="M31.0901 12.6138C31.0901 12.9711 30.9482 13.3137 30.6955 13.5663C30.4429 13.819 30.1003 13.9609 29.743 13.9609C29.3858 13.9609 29.0432 13.819 28.7905 13.5663C28.5379 13.3137 28.396 12.9711 28.396 12.6138C28.396 12.2567 28.5379 11.9142 28.7904 11.6617C29.0429 11.4091 29.3854 11.2673 29.7426 11.2673C30.0997 11.2673 30.4422 11.4091 30.6947 11.6617C30.9473 11.9142 31.0891 12.2567 31.0891 12.6138" fill="url(#paint37_radial_89_2)"/>
<path d="M31.0901 12.6138C31.0901 12.9711 30.9482 13.3137 30.6955 13.5663C30.4429 13.819 30.1003 13.9609 29.743 13.9609C29.3858 13.9609 29.0432 13.819 28.7905 13.5663C28.5379 13.3137 28.396 12.9711 28.396 12.6138C28.396 12.2567 28.5379 11.9142 28.7904 11.6617C29.0429 11.4091 29.3854 11.2673 29.7426 11.2673C30.0997 11.2673 30.4422 11.4091 30.6947 11.6617C30.9473 11.9142 31.0891 12.2567 31.0891 12.6138" fill="url(#paint38_radial_89_2)"/>
<path d="M31.0901 12.6138C31.0901 12.9711 30.9482 13.3137 30.6955 13.5663C30.4429 13.819 30.1003 13.9609 29.743 13.9609C29.3858 13.9609 29.0432 13.819 28.7905 13.5663C28.5379 13.3137 28.396 12.9711 28.396 12.6138C28.396 12.2567 28.5379 11.9142 28.7904 11.6617C29.0429 11.4091 29.3854 11.2673 29.7426 11.2673C30.0997 11.2673 30.4422 11.4091 30.6947 11.6617C30.9473 11.9142 31.0891 12.2567 31.0891 12.6138" fill="url(#paint39_radial_89_2)"/>
<path d="M31.0901 12.6138C31.0901 12.9711 30.9482 13.3137 30.6955 13.5663C30.4429 13.819 30.1003 13.9609 29.743 13.9609C29.3858 13.9609 29.0432 13.819 28.7905 13.5663C28.5379 13.3137 28.396 12.9711 28.396 12.6138C28.396 12.2567 28.5379 11.9142 28.7904 11.6617C29.0429 11.4091 29.3854 11.2673 29.7426 11.2673C30.0997 11.2673 30.4422 11.4091 30.6947 11.6617C30.9473 11.9142 31.0891 12.2567 31.0891 12.6138" fill="url(#paint40_radial_89_2)"/>
<defs>
<filter id="filter0_ii_89_2" x="4.93049" y="9.56749" width="25.3443" height="19.1906" filterUnits="userSpaceOnUse" color-interpolation-filters="sRGB">
<feFlood flood-opacity="0" result="BackgroundImageFix"/>
<feBlend mode="normal" in="SourceGraphic" in2="BackgroundImageFix" result="shape"/>
<feColorMatrix in="SourceAlpha" type="matrix" values="0 0 0 0 0 0 0 0 0 0 0 0 0 0 0 0 0 0 127 0" result="hardAlpha"/>
<feOffset dx="0.2" dy="-0.05"/>
<feGaussianBlur stdDeviation="0.125"/>
<feComposite in2="hardAlpha" operator="arithmetic" k2="-1" k3="1"/>
<feColorMatrix type="matrix" values="0 0 0 0 0.803922 0 0 0 0 0.580392 0 0 0 0 0.262745 0 0 0 1 0"/>
<feBlend mode="normal" in2="shape" result="effect1_innerShadow_89_2"/>
<feColorMatrix in="SourceAlpha" type="matrix" values="0 0 0 0 0 0 0 0 0 0 0 0 0 0 0 0 0 0 127 0" result="hardAlpha"/>
<feOffset dx="-0.2" dy="-0.05"/>
<feGaussianBlur stdDeviation="0.125"/>
<feComposite in2="hardAlpha" operator="arithmetic" k2="-1" k3="1"/>
<feColorMatrix type="matrix" values="0 0 0 0 0.894118 0 0 0 0 0.686275 0 0 0 0 0.301961 0 0 0 1 0"/>
<feBlend mode="normal" in2="effect1_innerShadow_89_2" result="effect2_innerShadow_89_2"/>
</filter>
<filter id="filter1_di_89_2" x="22.0743" y="20.9464" width="3.39502" height="3.6524" filterUnits="userSpaceOnUse" color-interpolation-filters="sRGB">
<feFlood flood-opacity="0" result="BackgroundImageFix"/>
<feColorMatrix in="SourceAlpha" type="matrix" values="0 0 0 0 0 0 0 0 0 0 0 0 0 0 0 0 0 0 127 0" result="hardAlpha"/>
<feOffset dx="-0.125" dy="0.125"/>
<feGaussianBlur stdDeviation="0.1875"/>
<feComposite in2="hardAlpha" operator="out"/>
<feColorMatrix type="matrix" values="0 0 0 0 1 0 0 0 0 0.54902 0 0 0 0 0.305882 0 0 0 1 0"/>
<feBlend mode="normal" in2="BackgroundImageFix" result="effect1_dropShadow_89_2"/>
<feBlend mode="normal" in="SourceGraphic" in2="effect1_dropShadow_89_2" result="shape"/>
<feColorMatrix in="SourceAlpha" type="matrix" values="0 0 0 0 0 0 0 0 0 0 0 0 0 0 0 0 0 0 127 0" result="hardAlpha"/>
<feOffset dx="0.075" dy="-0.075"/>
<feGaussianBlur stdDeviation="0.125"/>
<feComposite in2="hardAlpha" operator="arithmetic" k2="-1" k3="1"/>
<feColorMatrix type="matrix" values="0 0 0 0 0.984314 0 0 0 0 0.219608 0 0 0 0 0.254902 0 0 0 1 0"/>
<feBlend mode="normal" in2="shape" result="effect2_innerShadow_89_2"/>
</filter>
<filter id="filter2_di_89_2" x="9.56104" y="20.9464" width="3.39453" height="3.6524" filterUnits="userSpaceOnUse" color-interpolation-filters="sRGB">
<feFlood flood-opacity="0" result="BackgroundImageFix"/>
<feColorMatrix in="SourceAlpha" type="matrix" values="0 0 0 0 0 0 0 0 0 0 0 0 0 0 0 0 0 0 127 0" result="hardAlpha"/>
<feOffset dx="-0.125" dy="0.125"/>
<feGaussianBlur stdDeviation="0.1875"/>
<feComposite in2="hardAlpha" operator="out"/>
<feColorMatrix type="matrix" values="0 0 0 0 0.905882 0 0 0 0 0.439216 0 0 0 0 0.278431 0 0 0 1 0"/>
<feBlend mode="normal" in2="BackgroundImageFix" result="effect1_dropShadow_89_2"/>
<feBlend mode="normal" in="SourceGraphic" in2="effect1_dropShadow_89_2" result="shape"/>
<feColorMatrix in="SourceAlpha" type="matrix" values="0 0 0 0 0 0 0 0 0 0 0 0 0 0 0 0 0 0 127 0" result="hardAlpha"/>
<feOffset dx="0.15" dy="0.15"/>
<feGaussianBlur stdDeviation="0.15"/>
<feComposite in2="hardAlpha" operator="arithmetic" k2="-1" k3="1"/>
<feColorMatrix type="matrix" values="0 0 0 0 0.796078 0 0 0 0 0.141176 0 0 0 0 0.223529 0 0 0 1 0"/>
<feBlend mode="normal" in2="shape" result="effect2_innerShadow_89_2"/>
</filter>
<filter id="filter3_i_89_2" x="22.4785" y="10.3524" width="2.69312" height="2.59064" filterUnits="userSpaceOnUse" color-interpolation-filters="sRGB">
<feFlood flood-opacity="0" result="BackgroundImageFix"/>
<feBlend mode="normal" in="SourceGraphic" in2="BackgroundImageFix" result="shape"/>
<feColorMatrix in="SourceAlpha" type="matrix" values="0 0 0 0 0 0 0 0 0 0 0 0 0 0 0 0 0 0 127 0" result="hardAlpha"/>
<feOffset/>
<feGaussianBlur stdDeviation="0.0625"/>
<feComposite in2="hardAlpha" operator="arithmetic" k2="-1" k3="1"/>
<feColorMatrix type="matrix" values="0 0 0 0 0.756863 0 0 0 0 0.619608 0 0 0 0 0.321569 0 0 0 1 0"/>
<feBlend mode="normal" in2="shape" result="effect1_innerShadow_89_2"/>
</filter>
<filter id="filter4_di_89_2" x="14.3741" y="19.9239" width="6.03174" height="6.03174" filterUnits="userSpaceOnUse" color-interpolation-filters="sRGB">
<feFlood flood-opacity="0" result="BackgroundImageFix"/>
<feColorMatrix in="SourceAlpha" type="matrix" values="0 0 0 0 0 0 0 0 0 0 0 0 0 0 0 0 0 0 127 0" result="hardAlpha"/>
<feOffset dx="-0.25" dy="0.25"/>
<feGaussianBlur stdDeviation="0.3125"/>
<feComposite in2="hardAlpha" operator="out"/>
<feColorMatrix type="matrix" values="0 0 0 0 0.937255 0 0 0 0 0.443137 0 0 0 0 0.376471 0 0 0 1 0"/>
<feBlend mode="normal" in2="BackgroundImageFix" result="effect1_dropShadow_89_2"/>
<feBlend mode="normal" in="SourceGraphic" in2="effect1_dropShadow_89_2" result="shape"/>
<feColorMatrix in="SourceAlpha" type="matrix" values="0 0 0 0 0 0 0 0 0 0 0 0 0 0 0 0 0 0 127 0" result="hardAlpha"/>
<feOffset dx="0.375" dy="-0.375"/>
<feGaussianBlur stdDeviation="0.375"/>
<feComposite in2="hardAlpha" operator="arithmetic" k2="-1" k3="1"/>
<feColorMatrix type="matrix" values="0 0 0 0 0.313726 0 0 0 0 0.384314 0 0 0 0 1 0 0 0 1 0"/>
<feBlend mode="normal" in2="shape" result="effect2_innerShadow_89_2"/>
</filter>
<filter id="filter5_f_89_2" x="17.7274" y="10.0092" width="10.9533" height="6.66483" filterUnits="userSpaceOnUse" color-interpolation-filters="sRGB">
<feFlood flood-opacity="0" result="BackgroundImageFix"/>
<feBlend mode="normal" in="SourceGraphic" in2="BackgroundImageFix" result="shape"/>
<feGaussianBlur stdDeviation="0.0375" result="effect1_foregroundBlur_89_2"/>
</filter>
<radialGradient id="paint0_radial_89_2" cx="0" cy="0" r="1" gradientUnits="userSpaceOnUse" gradientTransform="translate(7.31368 23.5821) rotate(-103.54) scale(1.69708 2.0893)">
<stop stop-color="#395DE0"/>
<stop offset="1" stop-color="#2C68A3"/>
</radialGradient>
<radialGradient id="paint1_radial_89_2" cx="0" cy="0" r="1" gradientUnits="userSpaceOnUse" gradientTransform="translate(28.8344 21.388) rotate(108.743) scale(2.89716)">
<stop offset="0.249" stop-color="#3DB3F3"/>
<stop offset="1" stop-color="#5B73F4"/>
</radialGradient>
<radialGradient id="paint2_radial_89_2" cx="0" cy="0" r="1" gradientUnits="userSpaceOnUse" gradientTransform="translate(29.3173 22.0388) rotate(161.162) scale(1.35945 0.861912)">
<stop offset="0.258" stop-color="#5FBEFF"/>
<stop offset="1" stop-color="#5FBEFF" stop-opacity="0"/>
</radialGradient>
<radialGradient id="paint3_radial_89_2" cx="0" cy="0" r="1" gradientUnits="userSpaceOnUse" gradientTransform="translate(10.4887 14.1977) rotate(15.9454) scale(3.08552 7.70132)">
<stop stop-color="#FBC96E"/>
<stop offset="1" stop-color="#FAC567"/>
</radialGradient>
<radialGradient id="paint4_radial_89_2" cx="0" cy="0" r="1" gradientUnits="userSpaceOnUse" gradientTransform="translate(12.3051 14.8632) rotate(-156.753) scale(2.33935 7.03571)">
<stop offset="0.765" stop-color="#D89F3A" stop-opacity="0"/>
<stop offset="0.911" stop-color="#DAA139"/>
</radialGradient>
<radialGradient id="paint5_radial_89_2" cx="0" cy="0" r="1" gradientUnits="userSpaceOnUse" gradientTransform="translate(25.2322 16.0736) rotate(-125.455) scale(2.45289 2.51568)">
<stop offset="0.254" stop-color="#BF812A"/>
<stop offset="1" stop-color="#CE9333"/>
</radialGradient>
<radialGradient id="paint6_radial_89_2" cx="0" cy="0" r="1" gradientUnits="userSpaceOnUse" gradientTransform="translate(23.3401 14.8778) rotate(-23.0909) scale(2.1227 5.52998)">
<stop offset="0.734" stop-color="#E9BB61" stop-opacity="0"/>
<stop offset="0.929" stop-color="#E9BB61"/>
</radialGradient>
<radialGradient id="paint7_radial_89_2" cx="0" cy="0" r="1" gradientUnits="userSpaceOnUse" gradientTransform="translate(24.5972 15.483) rotate(-142.922) scale(3.33918 5.63335)">
<stop offset="0.773" stop-color="#C18739" stop-opacity="0"/>
<stop offset="0.948" stop-color="#C18739"/>
</radialGradient>
<linearGradient id="paint8_linear_89_2" x1="24.584" y1="20.9984" x2="7.47002" y2="24.9896" gradientUnits="userSpaceOnUse">
<stop stop-color="#FFBC5D"/>
<stop offset="0.304" stop-color="#FCAD6A"/>
<stop offset="1" stop-color="#CB7547"/>
</linearGradient>
<radialGradient id="paint9_radial_89_2" cx="0" cy="0" r="1" gradientUnits="userSpaceOnUse" gradientTransform="translate(13.857 31.9249) rotate(-69.4212) scale(10.6588 20.7454)">
<stop stop-color="#F67B4E"/>
<stop offset="1" stop-color="#F67B4E" stop-opacity="0"/>
</radialGradient>
<linearGradient id="paint10_linear_89_2" x1="7.21912" y1="24.5808" x2="9.85315" y2="24.0364" gradientUnits="userSpaceOnUse">
<stop stop-color="#C2794C"/>
<stop offset="1" stop-color="#E07648" stop-opacity="0"/>
</linearGradient>
<linearGradient id="paint11_linear_89_2" x1="27.8961" y1="26.2761" x2="23.4156" y2="25.2473" gradientUnits="userSpaceOnUse">
<stop offset="0.129" stop-color="#FFBB5B"/>
<stop offset="1" stop-color="#FFBB5B" stop-opacity="0"/>
</linearGradient>
<linearGradient id="paint12_linear_89_2" x1="18.9962" y1="29.0312" x2="18.9962" y2="27.8804" gradientUnits="userSpaceOnUse">
<stop offset="0.184" stop-color="#FF6F8C"/>
<stop offset="1" stop-color="#FF7A6A" stop-opacity="0"/>
</linearGradient>
<radialGradient id="paint13_radial_89_2" cx="0" cy="0" r="1" gradientUnits="userSpaceOnUse" gradientTransform="translate(29.2892 13.0769) rotate(113.385) scale(2.44072 2.02316)">
<stop offset="0.377" stop-color="#DD9049"/>
<stop offset="1" stop-color="#F8BF60" stop-opacity="0"/>
</radialGradient>
<radialGradient id="paint14_radial_89_2" cx="0" cy="0" r="1" gradientUnits="userSpaceOnUse" gradientTransform="translate(6.02368 13.2135) rotate(64.2172) scale(1.9836 1.08498)">
<stop offset="0.196" stop-color="#D7783D"/>
<stop offset="1" stop-color="#D7783D" stop-opacity="0"/>
</radialGradient>
<radialGradient id="paint15_radial_89_2" cx="0" cy="0" r="1" gradientUnits="userSpaceOnUse" gradientTransform="translate(17.6031 9.61846) rotate(76.0566) scale(1.13072 2.47614)">
<stop offset="0.382" stop-color="#D48C33"/>
<stop offset="1" stop-color="#FEB16A" stop-opacity="0"/>
</radialGradient>
<radialGradient id="paint16_radial_89_2" cx="0" cy="0" r="1" gradientUnits="userSpaceOnUse" gradientTransform="translate(23.4456 23.4009) rotate(-51.5819) scale(2.24105 1.44606)">
<stop stop-color="#FF196C"/>
<stop offset="1" stop-color="#FF1F4A"/>
</radialGradient>
<radialGradient id="paint17_radial_89_2" cx="0" cy="0" r="1" gradientUnits="userSpaceOnUse" gradientTransform="translate(24.9898 22.219) rotate(149.744) scale(1.6823 1.06559)">
<stop offset="0.223" stop-color="#FF5873"/>
<stop offset="1" stop-color="#FF5873" stop-opacity="0"/>
</radialGradient>
<radialGradient id="paint18_radial_89_2" cx="0" cy="0" r="1" gradientUnits="userSpaceOnUse" gradientTransform="translate(11.609 23.4606) rotate(-104.281) scale(1.71814 1.64505)">
<stop stop-color="#F6196C"/>
<stop offset="1" stop-color="#E42047"/>
</radialGradient>
<radialGradient id="paint19_radial_89_2" cx="0" cy="0" r="1" gradientUnits="userSpaceOnUse" gradientTransform="translate(12.3206 22.4166) rotate(155.726) scale(0.846847 0.741768)">
<stop stop-color="#FE536F"/>
<stop offset="1" stop-color="#FE536F" stop-opacity="0"/>
</radialGradient>
<radialGradient id="paint20_radial_89_2" cx="0" cy="0" r="1" gradientUnits="userSpaceOnUse" gradientTransform="translate(6.61343 11.6935) rotate(135.198) scale(2.87997 2.99622)">
<stop offset="0.172" stop-color="#E7C04E"/>
<stop offset="1" stop-color="#D9972A"/>
</radialGradient>
<radialGradient id="paint21_radial_89_2" cx="0" cy="0" r="1" gradientUnits="userSpaceOnUse" gradientTransform="translate(5.22139 14.1369) rotate(-71.331) scale(1.60773 1.74154)">
<stop offset="0.065" stop-color="#DF8089"/>
<stop offset="1" stop-color="#DF8089" stop-opacity="0"/>
</radialGradient>
<radialGradient id="paint22_radial_89_2" cx="0" cy="0" r="1" gradientUnits="userSpaceOnUse" gradientTransform="translate(6.72118 11.7555) rotate(141.017) scale(1.36309 0.704406)">
<stop stop-color="#FFDE71"/>
<stop offset="1" stop-color="#FFDE71" stop-opacity="0"/>
</radialGradient>
<radialGradient id="paint23_radial_89_2" cx="0" cy="0" r="1" gradientUnits="userSpaceOnUse" gradientTransform="translate(5.99365 12.7001) rotate(180) scale(1.81641 1.88782)">
<stop offset="0.488" stop-color="#E1AD3D" stop-opacity="0"/>
<stop offset="1" stop-color="#B9894B"/>
</radialGradient>
<radialGradient id="paint24_radial_89_2" cx="0" cy="0" r="1" gradientUnits="userSpaceOnUse" gradientTransform="translate(12.4713 10.7612) rotate(136.302) scale(2.8264 2.93751)">
<stop offset="0.172" stop-color="#E7C04E"/>
<stop offset="1" stop-color="#D9972A"/>
</radialGradient>
<radialGradient id="paint25_radial_89_2" cx="0" cy="0" r="1" gradientUnits="userSpaceOnUse" gradientTransform="translate(12.5772 10.8217) rotate(142.093) scale(1.34292 0.687945)">
<stop stop-color="#FFDE71"/>
<stop offset="1" stop-color="#FFDE71" stop-opacity="0"/>
</radialGradient>
<radialGradient id="paint26_radial_89_2" cx="0" cy="0" r="1" gradientUnits="userSpaceOnUse" gradientTransform="translate(11.3818 13.1069) rotate(-76.7987) scale(1.25936 1.67962)">
<stop stop-color="#E4A122"/>
<stop offset="1" stop-color="#E4A122" stop-opacity="0"/>
</radialGradient>
<radialGradient id="paint27_radial_89_2" cx="0" cy="0" r="1" gradientUnits="userSpaceOnUse" gradientTransform="translate(11.8507 11.7294) rotate(180) scale(1.81641)">
<stop offset="0.488" stop-color="#E1AD3D" stop-opacity="0"/>
<stop offset="1" stop-color="#B9894B"/>
</radialGradient>
<radialGradient id="paint28_radial_89_2" cx="0" cy="0" r="1" gradientUnits="userSpaceOnUse" gradientTransform="translate(24.8385 11.2006) rotate(136.32) scale(2.32323 2.41457)">
<stop offset="0.172" stop-color="#F0C950"/>
<stop offset="1" stop-color="#C8861F"/>
</radialGradient>
<radialGradient id="paint29_radial_89_2" cx="0" cy="0" r="1" gradientUnits="userSpaceOnUse" gradientTransform="translate(25.0355 10.9427) rotate(147.14) scale(1.29743 0.664635)">
<stop offset="0.184" stop-color="#FFDE71"/>
<stop offset="1" stop-color="#FFDE71" stop-opacity="0"/>
</radialGradient>
<radialGradient id="paint30_radial_89_2" cx="0" cy="0" r="1" gradientUnits="userSpaceOnUse" gradientTransform="translate(18.6924 21.9469) rotate(138.155) scale(2.72276)">
<stop stop-color="#5FBFFF"/>
<stop offset="1" stop-color="#3E94FF"/>
</radialGradient>
<linearGradient id="paint31_linear_89_2" x1="17.8076" y1="9.92842" x2="23.9534" y2="17.6784" gradientUnits="userSpaceOnUse">
<stop stop-color="#FFD678"/>
<stop offset="1" stop-color="#FFD678" stop-opacity="0"/>
</linearGradient>
<radialGradient id="paint32_radial_89_2" cx="0" cy="0" r="1" gradientUnits="userSpaceOnUse" gradientTransform="translate(23.9534 16.9218) rotate(-34.6679) scale(6.29422 1.68584)">
<stop offset="0.289" stop-color="#FFD175"/>
<stop offset="1" stop-color="#FFD175" stop-opacity="0"/>
</radialGradient>
<radialGradient id="paint33_radial_89_2" cx="0" cy="0" r="1" gradientUnits="userSpaceOnUse" gradientTransform="translate(18.9969 7.50645) rotate(125.606) scale(3.32786 2.82543)">
<stop offset="0.376" stop-color="#F3D154"/>
<stop offset="1" stop-color="#CC9848"/>
</radialGradient>
<radialGradient id="paint34_radial_89_2" cx="0" cy="0" r="1" gradientUnits="userSpaceOnUse" gradientTransform="translate(17.27 10.2123) rotate(-79.3129) scale(1.7753 2.11033)">
<stop stop-color="#E78F5E"/>
<stop offset="1" stop-color="#E78F5E" stop-opacity="0"/>
</radialGradient>
<radialGradient id="paint35_radial_89_2" cx="0" cy="0" r="1" gradientUnits="userSpaceOnUse" gradientTransform="translate(18.3298 9.05075) rotate(-146.725) scale(3.47618 4.15768)">
<stop offset="0.557" stop-color="#E9C251" stop-opacity="0"/>
<stop offset="1" stop-color="#B49858"/>
</radialGradient>
<radialGradient id="paint36_radial_89_2" cx="0" cy="0" r="1" gradientUnits="userSpaceOnUse" gradientTransform="translate(19.6017 7.68771) rotate(156.06) scale(1.92113 1.4784)">
<stop stop-color="#FFED77"/>
<stop offset="1" stop-color="#FFED77" stop-opacity="0"/>
</radialGradient>
<radialGradient id="paint37_radial_89_2" cx="0" cy="0" r="1" gradientUnits="userSpaceOnUse" gradientTransform="translate(30.8326 11.6945) rotate(135.198) scale(2.87997 2.99622)">
<stop offset="0.172" stop-color="#F8CB54"/>
<stop offset="1" stop-color="#EAA34B"/>
</radialGradient>
<radialGradient id="paint38_radial_89_2" cx="0" cy="0" r="1" gradientUnits="userSpaceOnUse" gradientTransform="translate(29.4413 14.1367) rotate(-71.3309) scale(1.60773 2.17316)">
<stop offset="0.16" stop-color="#F1907C"/>
<stop offset="1" stop-color="#F1907C" stop-opacity="0"/>
</radialGradient>
<radialGradient id="paint39_radial_89_2" cx="0" cy="0" r="1" gradientUnits="userSpaceOnUse" gradientTransform="translate(30.9409 11.7565) rotate(141.017) scale(1.36309 0.704406)">
<stop stop-color="#FFDE71"/>
<stop offset="1" stop-color="#FFDE71" stop-opacity="0"/>
</radialGradient>
<radialGradient id="paint40_radial_89_2" cx="0" cy="0" r="1" gradientUnits="userSpaceOnUse" gradientTransform="translate(30.2124 12.7001) rotate(180) scale(1.81641 1.88782)">
<stop offset="0.488" stop-color="#E0A444" stop-opacity="0"/>
<stop offset="1" stop-color="#C6924D"/>
</radialGradient>
</defs>
</svg>
