<svg width="36" height="36" viewBox="0 0 36 36" fill="none" xmlns="http://www.w3.org/2000/svg">
<path d="M27.8307 25.7417C27.8307 25.7417 23.6991 29.619 18.2358 29.619C12.7725 29.619 8.6436 25.7417 8.6436 25.7417C8.6436 25.7417 7.87524 22.053 9.8604 15.6847C10.9077 12.3269 25.81 11.9851 26.9776 14.9218C28.9627 19.9065 27.8307 25.7417 27.8307 25.7417Z" fill="#424242"/>
<path d="M8.6436 25.7417L9.95337 26.7917C9.95337 26.7917 9.94243 24.7136 10.585 22.7749C10.8256 22.0503 11.6842 21.7468 12.3295 22.1542L17.3307 25.2905C17.6049 25.4621 17.9213 25.5543 18.2448 25.5567C18.5683 25.5591 18.886 25.4717 19.1627 25.3042C21.5526 23.855 27.787 20.0624 28.0713 19.83C28.0713 19.83 28.0713 19.3624 27.9538 18.7663L8.57251 18.7909L8.6436 25.7417Z" fill="#393939"/>
<path d="M34.3249 14.971L18.7936 24.2214C18.4545 24.4237 18.0307 24.4237 17.6889 24.2214L2.16313 14.971C1.7311 14.7139 1.7311 14.0878 2.16313 13.8307L17.6944 4.58035C18.0334 4.378 18.4573 4.378 18.7991 4.58035L34.3303 13.8307C34.7596 14.0878 34.7596 14.7139 34.3249 14.971Z" fill="#424242"/>
<path d="M18.2549 23.5432C18.2522 23.5432 18.2467 23.546 18.244 23.546C18.2002 23.546 18.1565 23.535 18.1182 23.5104L1.88693 14.1534C1.88693 14.1534 1.80763 14.3038 1.88693 14.5745C1.96896 14.8452 2.09474 14.9327 2.1631 14.9737L17.6944 24.2241C17.8639 24.3253 18.0553 24.3772 18.2467 24.3772H18.2576V23.5432H18.2549Z" fill="#9E9E9E"/>
<path d="M18.2441 23.5432C18.2468 23.5432 18.2523 23.546 18.255 23.546C18.2988 23.546 18.3425 23.535 18.3808 23.5104L34.612 14.1534C34.612 14.1534 34.6913 14.3038 34.612 14.5745C34.53 14.8452 34.4042 14.9327 34.3359 14.9737L18.8046 24.2241C18.6351 24.3253 18.4437 24.3772 18.2523 24.3772H18.2413V23.5432H18.2441Z" fill="#616161"/>
<g clip-path="url(#clip0_90_76)">
<path d="M21.3061 16.746H19.0508V14.4034H19.7111V16.2262H20.9372V14.4034H21.5974V16.2262H21.9242V17.2548H21.3061V16.7453V16.746ZM23.2546 16.1526L22.0746 14.408H22.8016L23.5988 15.5895L24.3158 14.408H24.966L23.5393 16.7505H22.8931L23.2546 16.1532V16.1526ZM20.3752 12.1345L18.4855 11.1356V11.6308L19.814 12.3372L18.0585 13.4097V10.9083L14.9225 9.23859L14.5898 9.42842V12.0764L12.2737 13.4924V13.8569L15.423 15.5347L17.6101 14.1974V16.2042L16.283 15.4979L15.8494 15.7626L17.7257 16.7621L18.0585 16.5723V13.9243L20.3752 12.509V12.1345ZM15.4057 15.0304L14.9219 14.7734L12.8337 13.6628L14.821 12.4483L17.3916 13.8165L15.405 15.0304H15.4057ZM17.6095 13.4362L15.0388 12.068V9.79581L17.6095 11.1647V13.4362Z" fill="#E7E6E6"/>
</g>
<defs>
<clipPath id="clip0_90_76">
<rect width="12.6923" height="8.01617" fill="white" transform="translate(12.2737 9.23859)"/>
</clipPath>
</defs>
</svg>
