<svg width="36" height="36" viewBox="0 0 36 36" fill="none" xmlns="http://www.w3.org/2000/svg">
<path d="M27.4949 5.91542C26.0129 5.40956 22.45 4.90643 17.9629 4.90643C13.4757 4.90643 10.1453 5.39042 8.43083 5.91542C7.35348 6.24628 7.06637 6.88886 7.16481 7.74745C7.22497 8.25331 7.32887 8.66893 7.32887 8.66893C7.32887 8.66893 8.43356 14.217 8.42809 18.2693C8.42262 22.2834 7.74176 26.2674 7.74176 26.2674C7.74176 26.2674 11.8433 27.9053 17.9629 27.9846C24.0824 27.9053 27.7984 26.5135 27.7984 26.5135C27.7984 26.5135 27.1203 22.5267 27.1121 18.5154C27.1066 14.4631 28.5968 8.66893 28.5968 8.66893C28.5968 8.66893 28.6679 8.29706 28.7281 7.82401C28.832 7.00643 28.5449 6.27362 27.4949 5.91542Z" fill="#424242"/>
<path d="M33.002 21.6572C31.87 20.9927 28.7009 22.9041 26.97 23.0326C24.5474 23.213 10.4599 23.6341 8.11103 23.0052C7.38642 22.8111 4.38134 20.8505 2.88837 21.6572C1.72079 22.2888 1.06181 24.6732 2.21845 26.6337C3.77431 29.2697 7.67079 32.0806 17.9466 32.0806C28.2224 32.0806 32.1188 29.2697 33.6747 26.6337C34.8313 24.6705 34.1587 22.3353 33.002 21.6572Z" fill="#424242"/>
<path d="M2.88297 23.5275C2.54664 23.9814 2.66149 24.6021 2.84469 25.0943C3.03883 25.6166 3.33688 26.1142 3.68688 26.5463C3.80993 26.6994 4.73141 27.5716 5.11969 27.8506C4.94319 27.5678 4.88615 27.2265 4.9611 26.9017C5.13336 26.1689 5.91813 25.9091 6.51422 25.592C7.1486 25.2529 8.86305 24.49 8.14391 24.1017C6.90797 23.4373 3.77711 22.3244 2.88297 23.5275ZM33.3494 23.5193C33.24 21.7775 25.942 24.6404 25.942 24.6404C25.942 24.6404 25.1134 18.9611 26.5271 9.44821C26.5791 9.09821 26.7021 8.31344 25.4088 8.51852C23.6861 8.78923 21.4959 8.86032 19.8744 8.95602C18.6384 9.02985 18.2857 9.13376 18.0861 10.6869C17.9439 11.7888 17.2275 23.4509 17.6869 26.1826C17.8154 26.9455 21.2935 28.6216 25.5974 28.9963C27.9298 29.1986 28.8978 28.9963 28.8978 28.9963C30.3689 28.3345 33.5216 26.2701 33.3494 23.5193Z" fill="#212121"/>
<path d="M33.0019 21.6572C33.0019 21.6572 33.9152 23.7627 32.4933 25.942C30.5136 28.9744 25.6164 30.6971 17.9465 30.7053C10.2765 30.6943 5.37927 28.9744 3.39958 25.942C1.97771 23.7654 2.89099 21.6572 2.89099 21.6572C1.19568 22.6088 1.2449 24.985 2.2238 26.6338C3.77966 29.2588 7.66521 32.0506 17.8726 32.0779H18.0203C28.2277 32.0506 32.1133 29.2561 33.6691 26.6338C34.648 24.985 34.7 22.6061 33.0019 21.6572Z" fill="#757575"/>
<path d="M27.3392 21.5177C27.3282 21.3209 27.3118 21.206 27.0794 21.1732C27.0794 21.1732 21.1868 21.5423 17.6841 21.5423C14.1841 21.5423 8.48838 21.1568 8.48838 21.1568C8.25596 21.1896 8.26143 21.2935 8.25049 21.4877C8.19307 22.4228 8.0208 23.8474 7.94971 24.3998C7.9333 24.5392 8.00987 24.6705 8.13838 24.7252C8.98877 25.0724 12.2974 26.2673 17.6841 26.2673C23.12 26.2673 26.4478 25.0505 27.2599 24.7142C27.3774 24.665 27.454 24.5502 27.4485 24.4216C27.4321 23.8666 27.3802 22.3298 27.3392 21.5177Z" fill="#BB303D"/>
<path d="M11.0996 20.7193C11.0996 20.7193 13.4648 20.8834 13.9023 20.8834C14.3398 20.8834 14.3507 20.6127 14.3754 20.2709C14.5367 17.9795 14.3699 11.1517 14.0992 9.78453C13.9297 8.93141 13.5386 9.0025 13.1394 8.95055C12.5925 8.87946 11.0312 8.72633 10.6375 8.68805C10.2437 8.64977 9.69411 8.63336 9.8527 9.72985C10.4488 13.7877 10.6703 16.1556 10.684 20.1478C10.6867 20.3556 10.5855 20.681 11.0996 20.7193Z" fill="#757575"/>
<path d="M10.8589 25.551C11.7257 25.7314 12.7757 25.9502 14.0035 26.0732C14.2359 26.0978 14.4355 25.9256 14.4328 25.7096L14.4546 21.824C14.4519 21.6244 14.3617 21.4658 14.1456 21.4576C12.9863 21.4084 11.9664 21.3701 10.9546 21.3045C10.7058 21.2881 10.6347 21.4521 10.632 21.6381L10.5581 25.1955C10.5554 25.365 10.6812 25.5127 10.8589 25.551Z" fill="#ED6C66"/>
<path d="M17.7934 8.1439C23.2587 8.1439 27.6891 7.55505 27.6891 6.82866C27.6891 6.10228 23.2587 5.51343 17.7934 5.51343C12.3282 5.51343 7.89771 6.10228 7.89771 6.82866C7.89771 7.55505 12.3282 8.1439 17.7934 8.1439Z" fill="#757575"/>
</svg>
